<svg id="Netflix_Logo_CMYK" xmlns="http://www.w3.org/2000/svg" viewBox="0 0 1427 383.4"><defs><style>.cls-1{fill:#e82c2a;}</style></defs><title>logo</title><g id="Netflix_Logo_CMYK-2" data-name="Netflix_Logo_CMYK"><path class="cls-1" d="M1288.62,533.67q30.08,2.3,60.09,5V185.82h-60.09ZM321.93,402.76,243.67,185.82H186.56V569.18q30-4.26,60.09-8.18V352.52l69.59,199.92q32.83-3.81,65.79-7.21V185.82h-60.1ZM439.81,539.65q83.07-7.56,166.92-12.4V468q-53.57,3.11-106.83,7.3V385.69c23.3-.23,54-.94,81.15-.61V325.87c-21.71-.05-56.61.3-81.15.62V245.56H606.73V185.82H439.81ZM645.25,245.56h62.89V522.44q30-1.14,60.09-1.9v-275h62.89V185.82H645.25Zm224.4,273.36h60.09V382.2h81.46V323H929.74V245.56H1037.4V185.82H869.65Zm743.91-333.1h-66L1504,286.67,1465,185.82h-65L1469.8,366l-76.27,176.79q31.65,3.07,63.16,6.57l44.36-102.79L1545,559.91q34.32,4.41,68.49,9.26l.09,0-78.28-201.89Zm-477.55,0h-60.09V521.86q81.91,2.8,163.15,8.24V470.89q-51.37-3.42-103.06-5.82Z" transform="translate(-186.56 -185.79)"/></g></svg>
